<svg version="1.1" xmlns="http://www.w3.org/2000/svg" viewBox="0 0 654 375.3333282470703" width="654" height="375.3333282470703">
  <!-- svg-source:excalidraw -->
  
  <defs>
    <style class="style-fonts">
      @font-face {
        font-family: "Virgil";
        src: url("https://excalidraw.com/Virgil.woff2");
      }
      @font-face {
        font-family: "Cascadia";
        src: url("https://excalidraw.com/Cascadia.woff2");
      }
    </style>
  </defs>
  <rect x="0" y="0" width="654" height="375.3333282470703" fill="#ffffff"></rect><g stroke-linecap="round" transform="translate(10 10) rotate(0 317 177.66666412353516)"><path d="M0.55 0.23 C248.53 0.6, 495.56 0.68, 634.39 -0.43 M-0.01 0.39 C183.49 0.92, 367.67 0.52, 634.15 -0.38 M634.14 -1.23 C634.33 121.92, 634.63 243.69, 634.57 355.76 M634.21 0.45 C633.94 88.68, 633.97 178.1, 634.22 355.11 M634.11 356.09 C456.23 353.04, 277.22 352.17, 0.55 355.11 M634.15 355.22 C428.39 357.22, 222.05 356.43, 0.07 355.26 M0 356.08 C-1.56 265.83, -2.1 178.89, -0.97 0.48 M-0.64 355.88 C0.62 281.62, -0.47 206.42, 0.6 -0.51" stroke="#000000" stroke-width="1" fill="none"></path></g><g transform="translate(34.666534423828125 112.33341979980469) rotate(0 55.5 25.5)"><text x="0" y="17.5" font-family="Virgil, Segoe UI Emoji" font-size="20px" fill="#000000" text-anchor="start" style="white-space: pre;" direction="ltr">Vagrant</text><text x="0" y="43" font-family="Virgil, Segoe UI Emoji" font-size="20px" fill="#000000" text-anchor="start" style="white-space: pre;" direction="ltr">automation</text></g><g transform="translate(16.000030517578125 15.000045776367188) rotate(0 52.5 12.5)"><text x="0" y="18" font-family="Virgil, Segoe UI Emoji" font-size="20px" fill="#000000" text-anchor="start" style="white-space: pre;" direction="ltr">Windows 10</text></g><g stroke-linecap="round" transform="translate(160.66671752929688 28.666702270507812) rotate(0 236.66668701171875 162.33336639404294)"><path d="M0.26 0.47 C100.22 -0.66, 200.62 -0.33, 472.85 -0.85 M472.4 0.71 C474.51 86.29, 475.33 172.64, 472.98 325.38 M473.54 325.01 C328.78 326.47, 186.54 325.87, 0.72 323.81 M-0.54 324.7 C0.36 252.83, 0.83 182.65, 1.1 -1.08" stroke="#364fc7" stroke-width="1.5" fill="none" stroke-dasharray="8 9"></path></g><g transform="translate(514 33.000030517578125) rotate(0 51.5 12.5)"><text x="0" y="18" font-family="Virgil, Segoe UI Emoji" font-size="20px" fill="#364fc7" text-anchor="start" style="white-space: pre;" direction="ltr">VirtaulBox</text></g><g stroke-linecap="round" transform="translate(369.33331298828125 92.66670227050781) rotate(0 67.66668701171875 81)"><path d="M-0.69 -1.37 C39.1 0.85, 78.72 -1.69, 136.8 1.33 M135.19 1.82 C136.9 50.42, 134.85 95.7, 136.68 163.24 M136.78 160.99 C90.69 164.73, 45.96 164.24, 0.25 161.03 M1.66 160.86 C-0.76 115.3, -0.26 69.01, -1.55 -0.34" stroke="#862e9c" stroke-width="1.5" fill="none" stroke-dasharray="8 9"></path></g><g transform="translate(309.33331298828125 283.66673278808594) rotate(0 115 12.5)"><text x="0" y="18" font-family="Virgil, Segoe UI Emoji" font-size="20px" fill="#862e9c" text-anchor="start" style="white-space: pre;" direction="ltr">VM created by vagrant</text></g><g transform="translate(33.33331298828125 164.16673278808594) rotate(0 57 34.5)"><text x="0" y="12.25" font-family="Virgil, Segoe UI Emoji" font-size="13.611940298507463px" fill="#000000" text-anchor="start" style="white-space: pre;" direction="ltr">vagrant init</text><text x="0" y="29.5" font-family="Virgil, Segoe UI Emoji" font-size="13.611940298507463px" fill="#000000" text-anchor="start" style="white-space: pre;" direction="ltr">vagrant up</text><text x="0" y="46.75" font-family="Virgil, Segoe UI Emoji" font-size="13.611940298507463px" fill="#000000" text-anchor="start" style="white-space: pre;" direction="ltr">vagrant provision</text><text x="0" y="64" font-family="Virgil, Segoe UI Emoji" font-size="13.611940298507463px" fill="#000000" text-anchor="start" style="white-space: pre;" direction="ltr">vagrant destroy</text></g><g stroke-linecap="round" transform="translate(40.566167684832635 268.767155560706) rotate(0 5.295759243328035 4.874240809314671)"><path d="M10.59 4.87 C10.59 5.16, 10.56 5.44, 10.51 5.72 C10.46 6, 10.38 6.28, 10.27 6.54 C10.17 6.81, 10.04 7.07, 9.88 7.31 C9.73 7.56, 9.55 7.79, 9.35 8.01 C9.16 8.22, 8.93 8.43, 8.7 8.61 C8.46 8.79, 8.21 8.95, 7.94 9.1 C7.68 9.24, 7.4 9.36, 7.11 9.45 C6.82 9.55, 6.52 9.63, 6.22 9.67 C5.91 9.72, 5.6 9.75, 5.3 9.75 C4.99 9.75, 4.68 9.72, 4.38 9.67 C4.07 9.63, 3.77 9.55, 3.48 9.45 C3.2 9.36, 2.91 9.24, 2.65 9.1 C2.38 8.95, 2.13 8.79, 1.89 8.61 C1.66 8.43, 1.44 8.22, 1.24 8.01 C1.04 7.79, 0.86 7.56, 0.71 7.31 C0.56 7.07, 0.42 6.81, 0.32 6.54 C0.21 6.28, 0.13 6, 0.08 5.72 C0.03 5.44, 0 5.16, 0 4.87 C0 4.59, 0.03 4.31, 0.08 4.03 C0.13 3.75, 0.21 3.47, 0.32 3.21 C0.42 2.94, 0.56 2.68, 0.71 2.44 C0.86 2.19, 1.04 1.96, 1.24 1.74 C1.44 1.53, 1.66 1.32, 1.89 1.14 C2.13 0.96, 2.38 0.79, 2.65 0.65 C2.91 0.51, 3.2 0.39, 3.48 0.29 C3.77 0.2, 4.07 0.12, 4.38 0.07 C4.68 0.03, 4.99 0, 5.3 0 C5.6 0, 5.91 0.03, 6.22 0.07 C6.52 0.12, 6.82 0.2, 7.11 0.29 C7.4 0.39, 7.68 0.51, 7.94 0.65 C8.21 0.79, 8.46 0.96, 8.7 1.14 C8.93 1.32, 9.16 1.53, 9.35 1.74 C9.55 1.96, 9.73 2.19, 9.88 2.44 C10.04 2.68, 10.17 2.94, 10.27 3.21 C10.38 3.47, 10.46 3.75, 10.51 4.03 C10.56 4.31, 10.58 4.73, 10.59 4.87 C10.6 5.02, 10.6 4.73, 10.59 4.87" stroke="#000000" stroke-width="1" fill="none"></path></g><g stroke-linecap="round"><g transform="translate(45.25937261147487 278.4616075399318) rotate(0 -0.25985371696825155 5.90919254082749)"><path d="M0 0 C-0.09 1.97, -0.43 9.85, -0.52 11.82 M0 0 C-0.09 1.97, -0.43 9.85, -0.52 11.82" stroke="#000000" stroke-width="1" fill="none"></path></g></g><g stroke-linecap="round"><g transform="translate(44.786020555949506 290.58267211018176) rotate(0 2.339179356754215 3.6037346587943375)"><path d="M0 0 C0.78 1.2, 3.9 6.01, 4.68 7.21 M0 0 C0.78 1.2, 3.9 6.01, 4.68 7.21" stroke="#000000" stroke-width="1" fill="none"></path></g></g><g stroke-linecap="round"><g transform="translate(44.54699676866113 290.33620626097) rotate(0 -2.2147888506195272 3.2377697868896007)"><path d="M0 0 C-0.74 1.08, -3.69 5.4, -4.43 6.48 M0 0 C-0.74 1.08, -3.69 5.4, -4.43 6.48" stroke="#000000" stroke-width="1" fill="none"></path></g></g><g stroke-linecap="round"><g transform="translate(38.798473278291624 285.1773118334265) rotate(0 3.092690613866097 -1.9808523324706755)"><path d="M0 0 C1.03 -0.66, 5.15 -3.3, 6.19 -3.96 M0 0 C1.03 -0.66, 5.15 -3.3, 6.19 -3.96" stroke="#000000" stroke-width="1" fill="none"></path></g></g><g stroke-linecap="round"><g transform="translate(45.33284695700564 281.3306087094783) rotate(0 1.9644970090260756 2.465133097964241)"><path d="M0 0 C0.65 0.82, 3.27 4.11, 3.93 4.93 M0 0 C0.65 0.82, 3.27 4.11, 3.93 4.93" stroke="#000000" stroke-width="1" fill="none"></path></g></g><g stroke-linecap="round"><g transform="translate(64.6666259765625 281.9999847412109) rotate(0 48.333343505859375 0)"><path d="M0 0 C16.11 0, 80.56 0, 96.67 0 M0 0 C16.11 0, 80.56 0, 96.67 0" stroke="#000000" stroke-width="1" fill="none"></path></g><g transform="translate(64.6666259765625 281.9999847412109) rotate(0 48.333343505859375 0)"><path d="M96.67 0 L83.07 6.34 L83.07 -6.34 L96.67 0" stroke="none" stroke-width="0" fill="#000000" fill-rule="evenodd"></path><path d="M96.67 0 C92 2.18, 87.33 4.35, 83.07 6.34 M96.67 0 C91.43 2.44, 86.19 4.89, 83.07 6.34 M83.07 6.34 C83.07 3.67, 83.07 1, 83.07 -6.34 M83.07 6.34 C83.07 3, 83.07 -0.34, 83.07 -6.34 M83.07 -6.34 C88.46 -3.83, 93.84 -1.32, 96.67 0 M83.07 -6.34 C86.98 -4.52, 90.88 -2.7, 96.67 0 M96.67 0 C96.67 0, 96.67 0, 96.67 0 M96.67 0 C96.67 0, 96.67 0, 96.67 0" stroke="#000000" stroke-width="1" fill="none"></path></g></g></svg>